<svg width="102" height="17" viewBox="0 0 102 17" fill="none" xmlns="http://www.w3.org/2000/svg">
<path d="M0.496 16V0.599999H6.15C7.382 0.599999 8.394 0.812666 9.186 1.238C9.99267 1.64867 10.594 2.21333 10.99 2.932C11.386 3.636 11.584 4.42067 11.584 5.286C11.584 6.22467 11.3347 7.08267 10.836 7.86C10.352 8.63733 9.58933 9.202 8.548 9.554L11.738 16H8.504L5.644 9.928H3.312V16H0.496ZM3.312 7.86H5.974C6.91267 7.86 7.602 7.63267 8.042 7.178C8.482 6.72333 8.702 6.122 8.702 5.374C8.702 4.64067 8.482 4.054 8.042 3.614C7.61667 3.174 6.92 2.954 5.952 2.954H3.312V7.86ZM15.303 16V0.599999H20.561C22.365 0.599999 23.8464 0.922666 25.005 1.568C26.1784 2.19867 27.0437 3.09333 27.601 4.252C28.173 5.396 28.459 6.74533 28.459 8.3C28.459 9.85467 28.173 11.2113 27.601 12.37C27.0437 13.514 26.1784 14.4087 25.005 15.054C23.8464 15.6847 22.365 16 20.561 16H15.303ZM18.119 13.58H20.429C21.7197 13.58 22.739 13.3747 23.487 12.964C24.235 12.5387 24.7704 11.9373 25.093 11.16C25.4157 10.368 25.577 9.41467 25.577 8.3C25.577 7.2 25.4157 6.254 25.093 5.462C24.7704 4.67 24.235 4.06133 23.487 3.636C22.739 3.21067 21.7197 2.998 20.429 2.998H18.119V13.58ZM32.1757 16V0.599999H37.1477C38.3503 0.599999 39.333 0.797999 40.0957 1.194C40.8583 1.59 41.423 2.13267 41.7897 2.822C42.1563 3.51133 42.3397 4.274 42.3397 5.11C42.3397 6.078 42.0757 6.95067 41.5477 7.728C41.0343 8.50533 40.2277 9.05533 39.1277 9.378L42.4937 16H40.3157L37.1917 9.642H37.0597H34.0237V16H32.1757ZM34.0237 8.19H37.0157C38.2037 8.19 39.069 7.904 39.6117 7.332C40.1543 6.76 40.4257 6.02667 40.4257 5.132C40.4257 4.22267 40.1543 3.504 39.6117 2.976C39.0837 2.43333 38.211 2.162 36.9937 2.162H34.0237V8.19ZM49.5359 16.264C48.6266 16.264 47.8712 16.11 47.2699 15.802C46.6686 15.494 46.2212 15.0833 45.9279 14.57C45.6346 14.0567 45.4879 13.4993 45.4879 12.898C45.4879 11.7833 45.9132 10.9253 46.7639 10.324C47.6146 9.72267 48.7732 9.422 50.2399 9.422H53.1879V9.29C53.1879 8.33667 52.9386 7.618 52.4399 7.134C51.9412 6.63533 51.2739 6.386 50.4379 6.386C49.7192 6.386 49.0959 6.56933 48.5679 6.936C48.0546 7.288 47.7319 7.80867 47.5999 8.498H45.7079C45.7812 7.706 46.0452 7.03867 46.4999 6.496C46.9692 5.95333 47.5486 5.54267 48.2379 5.264C48.9272 4.97067 49.6606 4.824 50.4379 4.824C51.9632 4.824 53.1072 5.23467 53.8699 6.056C54.6472 6.86267 55.0359 7.94067 55.0359 9.29V16H53.3859L53.2759 14.042C52.9679 14.658 52.5132 15.186 51.9119 15.626C51.3252 16.0513 50.5332 16.264 49.5359 16.264ZM49.8219 14.702C50.5259 14.702 51.1272 14.5187 51.6259 14.152C52.1392 13.7853 52.5279 13.3087 52.7919 12.722C53.0559 12.1353 53.1879 11.5193 53.1879 10.874V10.852H50.3939C49.3086 10.852 48.5386 11.0427 48.0839 11.424C47.6439 11.7907 47.4239 12.2527 47.4239 12.81C47.4239 13.382 47.6292 13.844 48.0399 14.196C48.4652 14.5333 49.0592 14.702 49.8219 14.702ZM58.9082 16V5.088H60.5802L60.7122 6.672C61.0642 6.08533 61.5336 5.63067 62.1202 5.308C62.7069 4.98533 63.3669 4.824 64.1002 4.824C64.9656 4.824 65.7062 5 66.3222 5.352C66.9529 5.704 67.4369 6.23933 67.7742 6.958C68.1556 6.298 68.6762 5.77733 69.3362 5.396C70.0109 5.01467 70.7369 4.824 71.5142 4.824C72.8196 4.824 73.8609 5.22 74.6382 6.012C75.4156 6.78933 75.8042 7.992 75.8042 9.62V16H73.9782V9.818C73.9782 8.68867 73.7509 7.838 73.2962 7.266C72.8416 6.694 72.1889 6.408 71.3382 6.408C70.4582 6.408 69.7249 6.75267 69.1382 7.442C68.5662 8.11667 68.2802 9.08467 68.2802 10.346V16H66.4322V9.818C66.4322 8.68867 66.2049 7.838 65.7502 7.266C65.2956 6.694 64.6429 6.408 63.7922 6.408C62.9269 6.408 62.2009 6.75267 61.6142 7.442C61.0422 8.11667 60.7562 9.08467 60.7562 10.346V16H58.9082ZM83.3179 16.264C82.4086 16.264 81.6533 16.11 81.0519 15.802C80.4506 15.494 80.0033 15.0833 79.7099 14.57C79.4166 14.0567 79.2699 13.4993 79.2699 12.898C79.2699 11.7833 79.6953 10.9253 80.5459 10.324C81.3966 9.72267 82.5553 9.422 84.0219 9.422H86.9699V9.29C86.9699 8.33667 86.7206 7.618 86.2219 7.134C85.7233 6.63533 85.0559 6.386 84.2199 6.386C83.5013 6.386 82.8779 6.56933 82.3499 6.936C81.8366 7.288 81.5139 7.80867 81.3819 8.498H79.4899C79.5633 7.706 79.8273 7.03867 80.2819 6.496C80.7513 5.95333 81.3306 5.54267 82.0199 5.264C82.7093 4.97067 83.4426 4.824 84.2199 4.824C85.7453 4.824 86.8893 5.23467 87.6519 6.056C88.4293 6.86267 88.8179 7.94067 88.8179 9.29V16H87.1679L87.0579 14.042C86.7499 14.658 86.2953 15.186 85.6939 15.626C85.1073 16.0513 84.3153 16.264 83.3179 16.264ZM83.6039 14.702C84.3079 14.702 84.9093 14.5187 85.4079 14.152C85.9213 13.7853 86.3099 13.3087 86.5739 12.722C86.8379 12.1353 86.9699 11.5193 86.9699 10.874V10.852H84.1759C83.0906 10.852 82.3206 11.0427 81.8659 11.424C81.4259 11.7907 81.2059 12.2527 81.2059 12.81C81.2059 13.382 81.4113 13.844 81.8219 14.196C82.2473 14.5333 82.8413 14.702 83.6039 14.702ZM96.8703 16.264C95.5649 16.264 94.4796 15.934 93.6143 15.274C92.7489 14.614 92.2429 13.7193 92.0963 12.59H93.9883C94.1056 13.162 94.4063 13.6607 94.8903 14.086C95.3889 14.4967 96.0563 14.702 96.8923 14.702C97.6696 14.702 98.2416 14.5407 98.6083 14.218C98.9749 13.8807 99.1583 13.4847 99.1583 13.03C99.1583 12.37 98.9163 11.93 98.4323 11.71C97.9629 11.49 97.2956 11.292 96.4303 11.116C95.8436 10.9987 95.2569 10.83 94.6703 10.61C94.0836 10.39 93.5923 10.082 93.1963 9.686C92.8003 9.27533 92.6023 8.74 92.6023 8.08C92.6023 7.12667 92.9543 6.34933 93.6583 5.748C94.3769 5.132 95.3449 4.824 96.5623 4.824C97.7209 4.824 98.6669 5.11733 99.4003 5.704C100.148 6.276 100.581 7.09733 100.698 8.168H98.8723C98.7989 7.61067 98.5569 7.178 98.1463 6.87C97.7503 6.54733 97.2149 6.386 96.5403 6.386C95.8803 6.386 95.3669 6.52533 95.0003 6.804C94.6483 7.08267 94.4723 7.44933 94.4723 7.904C94.4723 8.344 94.6996 8.68867 95.1543 8.938C95.6236 9.18733 96.2543 9.4 97.0463 9.576C97.7209 9.72267 98.3589 9.906 98.9603 10.126C99.5763 10.3313 100.075 10.6467 100.456 11.072C100.852 11.4827 101.05 12.084 101.05 12.876C101.065 13.8587 100.691 14.6727 99.9283 15.318C99.1803 15.9487 98.1609 16.264 96.8703 16.264Z" fill="white"/>
</svg>
